<svg width="9939" height="2030" viewBox="0 0 9939 2030" fill="none" xmlns="http://www.w3.org/2000/svg"><path d="M822.673 42.185c-3.321.246-14.391.986-24.601 1.725-116.363 8.628-232.973 47.576-334.207 111.791-66.915 42.398-129.894 99.218-180.818 162.816-81.922 102.546-135.553 228.141-152.774 357.679-5.043 38.578-6.273 56.45-6.273 99.835 0 43.385 1.23 61.256 6.273 99.834C147.494 1005.4 201.125 1131 283.047 1233.54c50.924 63.6 113.903 120.42 180.818 162.82 89.549 56.82 190.044 93.55 293 107.35 38.501 5.06 56.337 6.29 99.635 6.29s61.134-1.23 99.635-6.29c102.955-13.8 203.455-50.53 292.995-107.35 66.92-42.4 129.9-99.22 180.82-162.82 81.93-102.54 135.56-228.14 152.78-357.675 5.04-38.578 6.27-56.449 6.27-99.834 0-43.385-1.23-61.257-6.27-99.835-17.22-129.538-70.85-255.133-152.78-357.679-34.56-43.261-76.26-84.798-119.44-119.185-89.17-70.994-197.54-121.157-310.09-143.59-46.13-9.243-84.016-13.064-134.695-13.557-20.296-.247-39.607-.247-43.052 0Zm86.105 241.452c54.491 5.793 104.682 19.474 154.122 42.152l15.01 6.902v444.572h-93.484V390.62l-15.007-4.437c-61.872-18.488-135.183-20.707-200.253-6.163-31.736 7.026-74.911 23.418-103.94 39.441-117.84 64.954-194.595 182.044-207.265 315.896-1.845 18.365-1.722 58.545 0 75.801 7.995 77.895 37.886 151.97 85.981 212.492l9.964 12.44-.246 61.26-.369 61.13-8.611-7.15c-104.678-88.12-166.796-209.525-176.636-345.719-1.599-21.939-.861-65.817 1.353-84.428 9.717-82.209 35.794-154.682 79.585-220.745 56.459-85.414 140.718-152.587 236.048-188.33 44.774-16.762 88.933-26.499 138.258-30.32 18.574-1.356 63.84-.493 85.49 1.849ZM1171.4 398.755c31.98 26.376 67.65 66.063 90.65 100.574 58.06 87.386 86.47 185.372 83.64 289.027-.73 27.978-1.72 39.071-5.9 64.091-11.69 71.117-36.66 135.085-75.65 194.123-47.11 71.12-113.53 129.91-190.53 168.61-73.931 37.1-159.174 54.97-240.85 50.41-68.883-3.94-124.728-17.5-182.541-44.37l-15.13-7.03V769.868h93.485v386.762l8.364 2.47c39.485 11.96 76.633 17.38 117.102 17.5 45.389 0 82.783-5.79 124.236-19.23 147.114-47.57 254.004-175.138 274.794-328.341 9.47-69.268 0-143.342-26.57-207.68-13.65-32.909-35.92-70.87-57.57-97.863l-9.84-12.202v-61.256c0-58.176.13-61.257 2.22-59.655 1.11.986 5.66 4.684 10.09 8.382ZM903.242 773.566v191.041h-93.484V582.524h93.484v191.042Z" fill="red"/><g filter="url(#a)"><path d="M2205 1027.76c0 44.8 13.44 87.68 40.32 128.64 26.88 40.96 62.08 74.24 105.6 99.84 44.8 25.6 93.44 38.4 145.92 38.4 57.6 0 108.8-12.8 153.6-38.4 44.8-25.6 80-58.88 105.6-99.84 26.88-40.96 40.32-83.84 40.32-128.64V136.88h274.56v896.64c0 103.68-25.6 195.84-76.8 276.48-51.2 79.36-120.32 142.08-207.36 188.16-87.04 44.8-183.68 67.2-289.92 67.2-104.96 0-200.96-22.4-288-67.2-85.76-46.08-154.24-108.8-205.44-188.16-51.2-80.64-76.8-172.8-76.8-276.48V136.88H2205v890.88Zm1430.13 539.52c-69.12 0-133.76-12.16-193.92-36.48-58.88-24.32-108.8-58.24-149.76-101.76l111.36-147.84c40.96 37.12 78.72 64 113.28 80.64 35.84 15.36 67.84 23.04 96 23.04 21.76 0 40.96-1.92 57.6-5.76 17.92-5.12 32-12.16 42.24-21.12 10.24-10.24 15.36-23.04 15.36-38.4 0-21.76-8.96-39.04-26.88-51.84-16.64-12.8-38.4-23.04-65.28-30.72-26.88-8.96-55.68-17.92-86.4-26.88-76.8-24.32-132.48-59.52-167.04-105.6-33.28-47.36-49.92-98.56-49.92-153.6 0-42.24 10.88-84.48 32.64-126.72 23.04-43.52 58.88-79.36 107.52-107.52 49.92-29.44 113.92-44.16 192-44.16 70.4 0 129.92 7.04 178.56 21.12 48.64 14.08 94.72 37.12 138.24 69.12l-101.76 157.44c-24.32-19.2-51.84-35.2-82.56-48-29.44-14.08-56.96-21.76-82.56-23.04-23.04-1.28-42.88 1.28-59.52 7.68-15.36 6.4-27.52 14.72-36.48 24.96-8.96 10.24-13.44 21.12-13.44 32.64-1.28 24.32 7.68 43.52 26.88 57.6 20.48 14.08 46.08 24.96 76.8 32.64s60.8 16.64 90.24 26.88c40.96 12.8 76.16 30.08 105.6 51.84 29.44 21.76 51.84 48 67.2 78.72 16.64 29.44 24.96 65.28 24.96 107.52 0 51.2-13.44 99.84-40.32 145.92-25.6 44.8-65.28 81.28-119.04 109.44-52.48 28.16-119.68 42.24-201.6 42.24Zm998.91 5.76c-102.4 0-189.44-19.2-261.12-57.6-70.4-38.4-124.16-91.52-161.28-159.36-37.12-67.84-55.68-145.92-55.68-234.24 0-84.48 21.76-160.64 65.28-228.48 43.52-67.84 101.76-121.6 174.72-161.28 72.96-40.96 154.24-61.44 243.84-61.44 120.32 0 218.88 35.2 295.68 105.6 78.08 69.12 128.64 169.6 151.68 301.44l-652.8 207.36-59.52-145.92 472.32-159.36-55.68 24.96c-10.24-33.28-28.8-62.08-55.68-86.4-25.6-25.6-64.64-38.4-117.12-38.4-39.68 0-74.88 9.6-105.6 28.8-29.44 17.92-52.48 44.16-69.12 78.72-15.36 33.28-23.04 72.96-23.04 119.04 0 52.48 9.6 96.64 28.8 132.48 19.2 34.56 45.44 60.8 78.72 78.72s70.4 26.88 111.36 26.88c29.44 0 57.6-5.12 84.48-15.36 28.16-10.24 55.68-23.68 82.56-40.32l119.04 199.68c-44.8 25.6-93.44 46.08-145.92 61.44-51.2 15.36-99.84 23.04-145.92 23.04Zm890.37-862.08 24.96 230.4-5.76-34.56c24.32-49.92 57.6-92.16 99.84-126.72 42.24-35.84 83.84-63.36 124.8-82.56 42.24-19.2 74.24-28.8 96-28.8l-13.44 268.8c-62.72-7.68-116.48 2.56-161.28 30.72s-79.36 65.28-103.68 111.36c-24.32 46.08-36.48 93.44-36.48 142.08V1550h-266.88V710.96h241.92Zm359.27 700.8c0-39.68 14.08-72.96 42.24-99.84 29.44-26.88 61.44-40.32 96-40.32 32 0 62.08 13.44 90.24 40.32 29.44 26.88 44.16 60.16 44.16 99.84 0 42.24-14.72 76.16-44.16 101.76-28.16 24.32-58.24 36.48-90.24 36.48-34.56 0-66.56-12.16-96-36.48-28.16-25.6-42.24-59.52-42.24-101.76Zm291.97-1274.88h952.32v268.8h-343.68V1550h-278.4V405.68h-330.24v-268.8Zm1337 1436.16c-78.08 0-149.12-15.36-213.12-46.08-62.72-32-112.64-80.64-149.76-145.92-37.12-65.28-55.68-148.48-55.68-249.6 0-94.72 19.2-176.64 57.6-245.76 38.4-69.12 88.96-122.24 151.67-159.36 62.73-38.4 129.29-57.6 199.69-57.6 83.2 0 145.92 14.08 188.16 42.24 43.52 26.88 79.36 56.96 107.52 90.24l-11.52 32.64 24.96-122.88h249.6V1550h-268.8v-182.4l21.12 57.6c-2.56 0-10.24 7.68-23.04 23.04-12.8 14.08-32 31.36-57.6 51.84-24.32 19.2-55.04 35.84-92.16 49.92-35.84 15.36-78.72 23.04-128.64 23.04Zm76.8-218.88c32 0 60.8-4.48 86.4-13.44 25.6-10.24 48-24.32 67.2-42.24 19.2-19.2 35.84-42.88 49.92-71.04V1022c-10.24-28.16-25.6-51.84-46.08-71.04-20.48-20.48-44.8-35.84-72.96-46.08-28.16-11.52-59.52-17.28-94.08-17.28-38.4 0-74.24 10.24-107.52 30.72-32 19.2-57.6 46.08-76.8 80.64-19.2 34.56-28.8 74.24-28.8 119.04 0 44.8 10.24 85.12 30.72 120.96 20.48 35.84 47.36 64 80.64 84.48 34.56 20.48 71.68 30.72 111.36 30.72ZM8718.9 977.84l159.36-266.88h266.88l-332.16 460.8-94.08-193.92ZM9191.22 1550h-324.48L8219.7 710.96h330.24L9191.22 1550Zm-506.88-268.8L8496.18 1550H8229.3l332.16-449.28 122.88 180.48Z" fill="red"/></g><defs><filter id="a" x="1922.6" y="136.88" width="7272.62" height="1444.16" filterUnits="userSpaceOnUse" color-interpolation-filters="sRGB"><feFlood flood-opacity="0" result="BackgroundImageFix"/><feColorMatrix in="SourceAlpha" values="0 0 0 0 0 0 0 0 0 0 0 0 0 0 0 0 0 0 127 0" result="hardAlpha"/><feOffset dy="4"/><feGaussianBlur stdDeviation="2"/><feComposite in2="hardAlpha" operator="out"/><feColorMatrix values="0 0 0 0 0 0 0 0 0 0 0 0 0 0 0 0 0 0 0.25 0"/><feBlend in2="BackgroundImageFix" result="effect1_dropShadow_1_5"/><feBlend in="SourceGraphic" in2="effect1_dropShadow_1_5" result="shape"/></filter></defs></svg>